<svg width="47" height="32" viewBox="0 0 47 32" fill="none" xmlns="http://www.w3.org/2000/svg">
<path d="M21.5912 29.9437H21.0283C21.0283 29.9377 21.0256 29.9318 21.0244 29.9261L21.009 29.8573C20.9991 29.812 20.9884 29.7671 20.9774 29.7226C20.9727 29.7016 20.9675 29.6806 20.9624 29.6597C20.9478 29.6009 20.9324 29.5422 20.9166 29.4834L20.9119 29.4666C20.8945 29.4029 20.8763 29.3396 20.8574 29.2765L20.8384 29.2155C20.8254 29.172 20.8116 29.129 20.799 29.086C20.7915 29.0624 20.7836 29.0392 20.7761 29.016C20.7623 28.9744 20.748 28.9329 20.7334 28.8917C20.7259 28.87 20.718 28.8479 20.7105 28.8266C20.6921 28.775 20.6732 28.7237 20.6537 28.6728C20.6494 28.6619 20.6458 28.6515 20.6415 28.6406C20.6186 28.5807 20.5945 28.5212 20.57 28.4617C20.5613 28.44 20.5522 28.4187 20.5432 28.3974C20.5266 28.3599 20.51 28.3188 20.493 28.2798L20.4611 28.2076C20.4445 28.1702 20.4275 28.1328 20.4101 28.0953C20.3995 28.0721 20.3884 28.0486 20.3774 28.0254C20.3572 27.9823 20.3379 27.9397 20.3154 27.8974C20.3071 27.8813 20.2996 27.8648 20.2913 27.8483C20.2633 27.7926 20.2345 27.7361 20.2053 27.6822L20.1658 27.6122L20.1101 27.5108L20.0667 27.4359C20.0485 27.4045 20.0304 27.373 20.0118 27.3416C19.9972 27.3162 19.9822 27.2907 19.9672 27.2668C19.9467 27.2327 19.9278 27.1994 19.9053 27.1657L19.8484 27.0744C19.8216 27.0325 19.7947 26.9902 19.7671 26.9487C19.7497 26.9225 19.7324 26.8966 19.7146 26.8708C19.6968 26.845 19.6775 26.8154 19.6585 26.7881C19.6396 26.7608 19.6191 26.7335 19.6017 26.7065C19.5843 26.6796 19.5654 26.6553 19.5468 26.6317C19.5283 26.6081 19.5073 26.5767 19.4872 26.5493L19.4316 26.4745C19.3921 26.4247 19.3558 26.3749 19.3171 26.3248L19.263 26.2563C19.2401 26.2275 19.2164 26.199 19.1931 26.1706L19.141 26.1077C19.1169 26.0789 19.0925 26.0505 19.068 26.0217L19.0167 25.9625L18.9401 25.8757L18.8947 25.8256C18.8003 25.7219 18.7036 25.6197 18.6046 25.5202L18.5611 25.4764L18.4703 25.3877L18.4257 25.345C18.3942 25.3147 18.3626 25.2848 18.3306 25.2552L18.2978 25.2253C18.1861 25.1224 18.0712 25.0221 17.9544 24.9259L17.9224 24.8993C17.8864 24.8694 17.8501 24.8398 17.8135 24.8106L17.7772 24.7814C17.7377 24.7515 17.7018 24.7219 17.6635 24.6923L17.6441 24.6777C17.515 24.5789 17.3828 24.4828 17.2494 24.3903L17.2308 24.3772C17.1886 24.3484 17.1463 24.32 17.1037 24.2919L17.0757 24.2736C17.0323 24.2447 16.9884 24.2167 16.9446 24.1886L16.9371 24.1841C16.7919 24.0921 16.6438 24.0039 16.493 23.9195L16.4871 23.9158C16.4394 23.8892 16.3916 23.8634 16.3438 23.8376L16.3229 23.8263C16.0687 23.6904 15.8076 23.5656 15.5397 23.4521L15.5231 23.445C15.4525 23.415 15.3814 23.3862 15.3096 23.3578H16.7224C16.9525 23.3578 17.1392 23.1067 17.1392 22.7964C17.1392 22.4862 16.9525 22.2351 16.7224 22.2351H16.3016C16.3276 22.1722 16.3565 22.1011 16.3876 22.021C16.7855 21.786 17.4858 21.2852 18.1806 20.3653L18.1861 20.3582C18.2388 20.2894 18.2905 20.2181 18.3413 20.1445L18.3515 20.1299C18.402 20.0577 18.4526 19.9832 18.5023 19.9054L18.5157 19.8848C18.5394 19.8474 18.5631 19.81 18.5868 19.7725C18.5868 19.7725 18.5868 19.7695 18.5896 19.7677C18.614 19.7302 18.6381 19.6891 18.6622 19.649L18.6776 19.6232C18.6981 19.5888 18.719 19.5536 18.7392 19.5181C18.7431 19.5117 18.7471 19.5053 18.7506 19.4986C18.7739 19.4582 18.7972 19.417 18.8201 19.3755L18.8359 19.3466C18.8548 19.3122 18.8734 19.2774 18.8919 19.2422C18.8975 19.2325 18.903 19.2224 18.9081 19.2123C18.9302 19.17 18.9523 19.1273 18.9744 19.0839L18.9898 19.0536C19.0072 19.0184 19.025 18.9825 19.0423 18.9466L19.0613 18.9092C19.0826 18.865 19.1035 18.8201 19.1244 18.7748L19.1375 18.746C19.1548 18.7086 19.1718 18.6711 19.1888 18.6337L19.2089 18.5888C19.2287 18.5435 19.2484 18.4979 19.2673 18.4518C19.2709 18.4436 19.2744 18.435 19.2776 18.4268C19.2954 18.3845 19.3127 18.3414 19.3301 18.298L19.3498 18.2486C19.366 18.2074 19.3822 18.1659 19.398 18.1244L19.4098 18.0929C19.4284 18.0435 19.4466 17.993 19.4647 17.9432L19.4837 17.8901C19.4979 17.8504 19.5117 17.81 19.5255 17.7696C19.5306 17.7546 19.5358 17.7396 19.5405 17.7247C19.5579 17.673 19.5752 17.6203 19.5922 17.5675C19.5977 17.5492 19.6037 17.5301 19.6092 17.5128L19.6487 17.3897C19.6538 17.3718 19.6593 17.3523 19.6645 17.3362C19.6806 17.2819 19.6968 17.2266 19.7122 17.1708C19.7174 17.1532 19.7221 17.1352 19.7268 17.1173C19.7387 17.0742 19.7505 17.0312 19.762 16.9874C19.7671 16.9676 19.7722 16.9477 19.7777 16.9279C19.7924 16.8703 19.807 16.8123 19.8212 16.7535L19.833 16.7045C19.8441 16.6577 19.8551 16.6105 19.8658 16.563L19.88 16.4994C19.8934 16.4384 19.9068 16.3774 19.9195 16.3153C19.9222 16.3033 19.9246 16.2909 19.927 16.2778C19.938 16.2243 19.9487 16.1701 19.9589 16.1158C19.9633 16.0937 19.9672 16.0716 19.9716 16.0496C19.9818 15.9938 19.9917 15.9373 20.0016 15.8815C20.0035 15.8695 20.0059 15.8579 20.0079 15.8463C20.0189 15.7805 20.0297 15.7141 20.0403 15.6472C20.0438 15.6248 20.0474 15.6023 20.0505 15.5795C20.0588 15.5252 20.0667 15.4706 20.0746 15.4152L20.0817 15.3643C20.0912 15.2955 20.1003 15.2262 20.1089 15.1559C20.1117 15.1338 20.1141 15.1117 20.1168 15.0892C20.1237 15.0334 20.13 14.9772 20.1358 14.9208C20.1382 14.9006 20.1405 14.8808 20.1425 14.8606C20.1501 14.7882 20.1572 14.7153 20.1638 14.6417C20.1638 14.6211 20.1674 14.6005 20.1689 14.5795C20.1741 14.5204 20.1792 14.4609 20.1836 14.401C20.1836 14.3789 20.1871 14.3569 20.1887 14.3348C20.1942 14.2584 20.1993 14.1816 20.2041 14.1042C20.2041 14.0867 20.2041 14.0668 20.2068 14.0511C20.2104 13.9867 20.2139 13.922 20.2167 13.8569C20.2167 13.8333 20.2167 13.8097 20.2199 13.7861C20.223 13.7057 20.2262 13.6248 20.2286 13.5429C20.2286 13.5316 20.2286 13.52 20.2286 13.5084C20.2307 13.4356 20.2322 13.362 20.2333 13.2876C20.2333 13.2633 20.2333 13.239 20.2333 13.2147C20.2333 13.1348 20.2333 13.0545 20.2333 12.9737V12.9549C20.2333 12.8689 20.2333 12.7817 20.2333 12.693V12.6181C20.2333 12.5433 20.2301 12.4647 20.2282 12.3868V12.3445C20.2254 12.2547 20.2218 12.1638 20.2183 12.0725C20.2183 12.0489 20.2159 12.0249 20.2151 12.0014C20.2117 11.9245 20.2078 11.8472 20.2033 11.7693C20.2033 11.7502 20.2033 11.7319 20.2001 11.7113C20.1946 11.6178 20.1886 11.5235 20.182 11.4284L20.1772 11.3622C20.1713 11.2828 20.1654 11.2031 20.1587 11.1226C20.1587 11.0994 20.1551 11.0762 20.1532 11.053C20.1449 10.9557 20.1358 10.8573 20.1263 10.7585C20.1263 10.7398 20.1224 10.7211 20.1208 10.702C20.1125 10.6178 20.1034 10.5328 20.0943 10.4471C20.0916 10.4213 20.0888 10.3959 20.0857 10.37C20.0746 10.2682 20.0628 10.1661 20.0501 10.0624C20.0501 10.0497 20.0466 10.037 20.045 10.025C20.0337 9.93217 20.0217 9.83886 20.0091 9.74505C20.0051 9.71736 20.0016 9.68966 19.9976 9.66197C19.9829 9.55569 19.9678 9.44852 19.9522 9.34049C18.3732 -1.31572 7.18366 0.413656 7.18366 0.413656L7.5421 2.70328L0.774902 9.48083L1.07057 12.0979L3.63407 13.5949C3.74835 13.3195 3.89508 13.0573 4.07146 12.8131C5.72546 11.0044 8.93437 9.5845 9.85295 9.28997C10.0369 9.23121 10.1415 9.20165 10.1415 9.20165C5.74756 14.593 6.24731 20.7695 6.44311 22.2418C6.23942 22.2792 6.08192 22.5124 6.08192 22.7968C6.08192 23.1067 6.26863 23.3582 6.49877 23.3582H7.91158C5.56189 24.2906 3.69675 26.0665 2.72339 28.2982C2.72224 28.3012 2.72092 28.3042 2.71944 28.3072C2.64759 28.4728 2.58075 28.6409 2.51891 28.8113C2.51901 28.813 2.51901 28.8148 2.51891 28.8165C2.50233 28.8629 2.48614 28.9093 2.47035 28.9561C2.46443 28.9729 2.45851 28.9898 2.45298 29.007C2.43877 29.0489 2.42561 29.0912 2.41351 29.1339C2.4064 29.1556 2.39969 29.1777 2.39298 29.1994C2.38035 29.2394 2.36811 29.2798 2.35627 29.3202L2.33495 29.3951C2.3239 29.4325 2.31285 29.4726 2.30259 29.5115C2.29509 29.5392 2.28798 29.5665 2.28087 29.5942C2.2714 29.6316 2.26153 29.669 2.25245 29.7065C2.24337 29.7439 2.23469 29.7813 2.226 29.821C2.21732 29.8606 2.20626 29.9071 2.19679 29.9505H1.63348C1.52516 29.9482 1.41745 29.9665 1.31668 30.0042C1.21591 30.0419 1.1241 30.0984 1.04665 30.1702C0.969196 30.242 0.907653 30.3278 0.865639 30.4225C0.823625 30.5172 0.801984 30.6189 0.801984 30.7216C0.801984 30.8243 0.823625 30.926 0.865639 31.0207C0.907653 31.1154 0.969196 31.2011 1.04665 31.273C1.1241 31.3448 1.21591 31.4012 1.31668 31.439C1.41745 31.4767 1.52516 31.495 1.63348 31.4927H21.5983C21.7067 31.495 21.8144 31.4767 21.9151 31.439C22.0159 31.4012 22.1077 31.3448 22.1852 31.273C22.2626 31.2011 22.3242 31.1154 22.3662 31.0207C22.4082 30.926 22.4298 30.8243 22.4298 30.7216C22.4298 30.6189 22.4082 30.5172 22.3662 30.4225C22.3242 30.3278 22.2626 30.242 22.1852 30.1702C22.1077 30.0984 22.0159 30.0419 21.9151 30.0042C21.8144 29.9665 21.7067 29.9482 21.5983 29.9505L21.5912 29.9437Z" fill="#595653"/>
<path d="M45.2462 29.9437H44.6833C44.6833 29.9377 44.6805 29.9318 44.6793 29.9261L44.6639 29.8573C44.654 29.812 44.6434 29.7671 44.6323 29.7226C44.6276 29.7016 44.6225 29.6806 44.6173 29.6597C44.6027 29.6009 44.5873 29.5422 44.5715 29.4834L44.5668 29.4666C44.5494 29.4029 44.5313 29.3396 44.5123 29.2765L44.4934 29.2155C44.4804 29.172 44.4665 29.129 44.4539 29.086C44.4464 29.0624 44.4385 29.0392 44.431 29.016C44.4172 28.9744 44.403 28.9329 44.3884 28.8917C44.3809 28.87 44.373 28.8479 44.3655 28.8266C44.3471 28.775 44.3281 28.7237 44.3086 28.6728C44.3043 28.6619 44.3007 28.6515 44.2964 28.6406C44.2735 28.5807 44.2494 28.5212 44.2249 28.4617C44.2163 28.44 44.2072 28.4187 44.1981 28.3974C44.1815 28.3599 44.1649 28.3188 44.148 28.2798L44.116 28.2076C44.0994 28.1702 44.0824 28.1328 44.0651 28.0953C44.0544 28.0721 44.0434 28.0486 44.0323 28.0254C44.0122 27.9823 43.9928 27.9397 43.9703 27.8974C43.962 27.8813 43.9545 27.8648 43.9463 27.8483C43.9182 27.7926 43.8894 27.7361 43.8602 27.6822L43.8207 27.6122L43.7651 27.5108L43.7216 27.4359C43.7035 27.4045 43.6853 27.373 43.6668 27.3416C43.6522 27.3162 43.6372 27.2907 43.6222 27.2668C43.6016 27.2327 43.5827 27.1994 43.5602 27.1657L43.5033 27.0744C43.4765 27.0325 43.4497 26.9902 43.422 26.9487C43.4047 26.9225 43.3873 26.8966 43.3695 26.8708C43.3518 26.845 43.3324 26.8154 43.3135 26.7881C43.2945 26.7608 43.274 26.7335 43.2566 26.7065C43.2393 26.6796 43.2203 26.6553 43.2018 26.6317C43.1832 26.6081 43.1623 26.5767 43.1422 26.5493L43.0865 26.4745C43.047 26.4247 43.0107 26.3749 42.972 26.3248L42.9179 26.2563C42.895 26.2275 42.8714 26.199 42.8481 26.1706L42.796 26.1077C42.7719 26.0789 42.7474 26.0505 42.7229 26.0217L42.6716 25.9625L42.595 25.8757L42.5496 25.8256C42.4553 25.7219 42.3586 25.6197 42.2595 25.5202L42.2161 25.4764L42.1253 25.3877L42.0807 25.345C42.0491 25.3147 42.0175 25.2848 41.9855 25.2552L41.9528 25.2253C41.8411 25.1224 41.7262 25.0221 41.6093 24.9259L41.5774 24.8993C41.5413 24.8694 41.505 24.8398 41.4684 24.8106L41.4321 24.7814C41.3926 24.7515 41.3567 24.7219 41.3184 24.6923L41.2991 24.6777C41.17 24.5789 41.0377 24.4828 40.9043 24.3903L40.8858 24.3772C40.8435 24.3484 40.8013 24.32 40.7587 24.2919L40.7306 24.2736C40.6872 24.2447 40.6434 24.2167 40.5996 24.1886L40.5921 24.1841C40.4468 24.0921 40.2988 24.0039 40.148 23.9195L40.1421 23.9158C40.0943 23.8892 40.0465 23.8634 39.9988 23.8376L39.9778 23.8263C39.7236 23.6904 39.4626 23.5656 39.1947 23.4521L39.1781 23.445C39.1074 23.415 39.0364 23.3862 38.9645 23.3578H40.3773C40.6075 23.3578 40.7942 23.1067 40.7942 22.7964C40.7942 22.4862 40.6075 22.2351 40.3773 22.2351H39.9565C39.9826 22.1722 40.0114 22.1011 40.0426 22.021C40.4405 21.786 41.1408 21.2852 41.8355 20.3653L41.8411 20.3582C41.8937 20.2894 41.9454 20.2181 41.9962 20.1445L42.0065 20.1299C42.057 20.0577 42.1075 19.9832 42.1572 19.9054L42.1707 19.8848C42.1944 19.8474 42.218 19.81 42.2417 19.7725C42.2417 19.7725 42.2417 19.7695 42.2445 19.7677C42.269 19.7302 42.293 19.6891 42.3171 19.649L42.3325 19.6232C42.353 19.5888 42.374 19.5536 42.3941 19.5181C42.398 19.5117 42.402 19.5053 42.4055 19.4986C42.4288 19.4582 42.4521 19.417 42.475 19.3755L42.4908 19.3466C42.5098 19.3122 42.5283 19.2774 42.5469 19.2422C42.5524 19.2325 42.5579 19.2224 42.5631 19.2123C42.5852 19.17 42.6073 19.1273 42.6294 19.0839L42.6448 19.0536C42.6621 19.0184 42.6799 18.9825 42.6973 18.9466L42.7162 18.9092C42.7375 18.865 42.7585 18.8201 42.7794 18.7748L42.7924 18.746C42.8098 18.7086 42.8267 18.6711 42.8437 18.6337L42.8639 18.5888C42.8836 18.5435 42.9033 18.4979 42.9223 18.4518C42.9258 18.4436 42.9294 18.435 42.9325 18.4268C42.9503 18.3845 42.9677 18.3414 42.985 18.298L43.0048 18.2486C43.021 18.2074 43.0371 18.1659 43.0529 18.1244L43.0648 18.0929C43.0833 18.0435 43.1015 17.993 43.1196 17.9432L43.1386 17.8901C43.1528 17.8504 43.1666 17.81 43.1804 17.7696C43.1856 17.7546 43.1907 17.7396 43.1954 17.7247C43.2128 17.673 43.2302 17.6203 43.2472 17.5675C43.2527 17.5492 43.2586 17.5301 43.2641 17.5128L43.3036 17.3897C43.3087 17.3718 43.3143 17.3523 43.3194 17.3362C43.3356 17.2819 43.3518 17.2266 43.3672 17.1708C43.3723 17.1532 43.377 17.1352 43.3818 17.1173C43.3936 17.0742 43.4054 17.0312 43.4169 16.9874C43.422 16.9676 43.4272 16.9477 43.4327 16.9279C43.4473 16.8703 43.4619 16.8123 43.4761 16.7535L43.488 16.7045C43.499 16.6577 43.5101 16.6105 43.5207 16.563L43.5349 16.4994C43.5483 16.4384 43.5618 16.3774 43.5744 16.3153C43.5772 16.3033 43.5795 16.2909 43.5819 16.2778C43.593 16.2243 43.6036 16.1701 43.6139 16.1158C43.6182 16.0937 43.6222 16.0716 43.6265 16.0496C43.6368 15.9938 43.6466 15.9373 43.6565 15.8815C43.6585 15.8695 43.6609 15.8579 43.6628 15.8463C43.6739 15.7805 43.6847 15.7141 43.6952 15.6472C43.6987 15.6248 43.7023 15.6023 43.7055 15.5795C43.7137 15.5252 43.7216 15.4706 43.7295 15.4152L43.7366 15.3643C43.7461 15.2955 43.7552 15.2262 43.7639 15.1559C43.7666 15.1338 43.769 15.1117 43.7718 15.0892C43.7786 15.0334 43.7849 14.9772 43.7907 14.9208C43.7931 14.9006 43.7955 14.8808 43.7974 14.8606C43.8051 14.7882 43.8122 14.7153 43.8188 14.6417C43.8188 14.6211 43.8223 14.6005 43.8239 14.5795C43.829 14.5204 43.8341 14.4609 43.8385 14.401C43.8385 14.3789 43.842 14.3569 43.8436 14.3348C43.8491 14.2584 43.8543 14.1816 43.859 14.1042C43.859 14.0867 43.859 14.0668 43.8618 14.0511C43.8653 13.9867 43.8689 13.922 43.8716 13.8569C43.8716 13.8333 43.8716 13.8097 43.8748 13.7861C43.878 13.7057 43.8811 13.6248 43.8835 13.5429C43.8835 13.5316 43.8835 13.52 43.8835 13.5084C43.8856 13.4356 43.8872 13.362 43.8882 13.2876C43.8882 13.2633 43.8882 13.239 43.8882 13.2147C43.8882 13.1348 43.8882 13.0545 43.8882 12.9737V12.9549C43.8882 12.8689 43.8882 12.7817 43.8882 12.693V12.6181C43.8882 12.5433 43.8851 12.4647 43.8831 12.3868V12.3445C43.8803 12.2547 43.8768 12.1638 43.8732 12.0725C43.8732 12.0489 43.8709 12.0249 43.8701 12.0014C43.8666 11.9245 43.8627 11.8472 43.8582 11.7693C43.8582 11.7502 43.8582 11.7319 43.8551 11.7113C43.8495 11.6178 43.8435 11.5235 43.8369 11.4284L43.8322 11.3622C43.8263 11.2828 43.8203 11.2031 43.8136 11.1226C43.8136 11.0994 43.8101 11.0762 43.8081 11.053C43.7998 10.9557 43.7907 10.8573 43.7812 10.7585C43.7812 10.7398 43.7773 10.7211 43.7757 10.702C43.7674 10.6178 43.7584 10.5328 43.7493 10.4471C43.7465 10.4213 43.7438 10.3959 43.7406 10.37C43.7295 10.2682 43.7177 10.1661 43.7051 10.0624C43.7051 10.0497 43.7015 10.037 43.6999 10.025C43.6886 9.93217 43.6766 9.83886 43.664 9.74505C43.6601 9.71736 43.6565 9.68966 43.6526 9.66197C43.6378 9.55569 43.6227 9.44852 43.6072 9.34049C42.0282 -1.31572 30.8386 0.413656 30.8386 0.413656L31.197 2.70328L24.4298 9.48083L24.7255 12.0979L27.289 13.5949C27.4033 13.3195 27.55 13.0573 27.7264 12.8131C29.3804 11.0044 32.5893 9.5845 33.5079 9.28997C33.6918 9.23121 33.7965 9.20165 33.7965 9.20165C29.4025 14.593 29.9023 20.7695 30.098 22.2418C29.8944 22.2792 29.7369 22.5124 29.7369 22.7968C29.7369 23.1067 29.9236 23.3582 30.1537 23.3582H31.5665C29.2168 24.2906 27.3517 26.0665 26.3783 28.2982C26.3772 28.3012 26.3759 28.3042 26.3744 28.3072C26.3025 28.4728 26.2357 28.6409 26.1738 28.8113C26.174 28.813 26.174 28.8148 26.1738 28.8165C26.1573 28.8629 26.1411 28.9093 26.1253 28.9561C26.1194 28.9729 26.1134 28.9898 26.1079 29.007C26.0937 29.0489 26.0806 29.0912 26.0684 29.1339C26.0613 29.1556 26.0546 29.1777 26.0479 29.1994C26.0353 29.2394 26.0231 29.2798 26.0112 29.3202L25.9899 29.3951C25.9788 29.4325 25.9678 29.4726 25.9575 29.5115C25.95 29.5392 25.9429 29.5665 25.9358 29.5942C25.9263 29.6316 25.9165 29.669 25.9074 29.7065C25.8983 29.7439 25.8896 29.7813 25.8809 29.821C25.8723 29.8606 25.8612 29.9071 25.8517 29.9505H25.2884C25.1801 29.9482 25.0724 29.9665 24.9716 30.0042C24.8708 30.0419 24.779 30.0984 24.7016 30.1702C24.6241 30.242 24.5626 30.3278 24.5206 30.4225C24.4786 30.5172 24.4569 30.6189 24.4569 30.7216C24.4569 30.8243 24.4786 30.926 24.5206 31.0207C24.5626 31.1154 24.6241 31.2011 24.7016 31.273C24.779 31.3448 24.8708 31.4012 24.9716 31.439C25.0724 31.4767 25.1801 31.495 25.2884 31.4927H45.2533C45.3616 31.495 45.4693 31.4767 45.5701 31.439C45.6708 31.4012 45.7627 31.3448 45.8401 31.273C45.9176 31.2011 45.9791 31.1154 46.0211 31.0207C46.0631 30.926 46.0848 30.8243 46.0848 30.7216C46.0848 30.6189 46.0631 30.5172 46.0211 30.4225C45.9791 30.3278 45.9176 30.242 45.8401 30.1702C45.7627 30.0984 45.6708 30.0419 45.5701 30.0042C45.4693 29.9665 45.3616 29.9482 45.2533 29.9505L45.2462 29.9437Z" fill="#595653"/>
</svg>
